<?xml version='1.0' encoding='utf-8'?>
<svg xmlns="http://www.w3.org/2000/svg" width="138.22" height="152.17" version="1.1" viewBox="0 0 36.571 40.262"> <g transform="translate(-283.36 -119.1)"> <path d="m304.7 140.41c-8.656 0.82301-21.946 7.1684-21.317 12.814 0.62954 5.6455 11.081 6.134 21.316 6.134 10.235 0 17.175-8.4145 14.748-13.029-2.4272-4.6146-6.0911-6.7419-14.747-5.9189z" fill="#0099da"/> <g transform="translate(-195.98 205.54)" filter="url(#filter2197)" opacity=".96"> <g transform="matrix(.26349 .031545 -.031545 .26349 374.18 -49.22)"> <path d="m469.55-71.798v-31.547c6e-3 -5.3871 2.3036-9.3766 5.793-12.64l1.4763-25.138c3.8176 1.8518 7.7526 1.8818 11.811 0l1.0902 25.138c2.4095 3.4127 5.7552 5.3455 5.709 12.64v31.547c-3.0408 8.2525-22.089 8.662-25.88 0z" fill="#558bb4" fill-opacity=".77366" stroke="#82a8c6" stroke-linecap="butt" stroke-linejoin="miter" stroke-miterlimit="4"/> <path d="m486.72-137.46c0 1.2628-1.8741 2.2865-4.186 2.2865s-4.186-1.0237-4.186-2.2865l-0.85092-10.813c0.58648-0.17089 4.1124-0.25911 4.8235-0.25911 0.83332 0 4.598 0.0299 5.2503 0.25911z" fill="#804d00"/> <path d="m495.53-72.923a12.99 7.5 0 0 1-12.99 7.5 12.99 7.5 0 0 1-12.99-7.5 12.99 7.5 0 0 1 12.99-7.5 12.99 7.5 0 0 1 12.99 7.5z" fill="none" stroke="#82a8c6" stroke-dasharray="0.25, 0.25" stroke-linecap="round" stroke-linejoin="round" stroke-miterlimit="4"/> <path d="m488.46-142.39a5.7945 3.1933 0 0 1-5.7945 3.1933 5.7945 3.1933 0 0 1-5.7945-3.1933 5.7945 3.1933 0 0 1 5.7945-3.1933 5.7945 3.1933 0 0 1 5.7945 3.1933z" fill="#804d00" stroke="#73a1c0" stroke-linecap="round" stroke-linejoin="round" stroke-miterlimit="4" stroke-width="3"/> <path d="m482.54-146.05c-1.1999 6.2e-4 -4.0278-1.5036-4.9176-1.1018l0.29215 2.7459 0.27104 2.552c0.91276 0.84166 2.567 1.358 4.3545 1.3592 1.7874-2e-3 3.4417-0.51758 4.3545-1.3592l0.27104-2.5496 0.24845-2.3367c-0.85477-0.3468-3.7661 0.69097-4.874 0.69016z" fill="#804d00"/> <path d="m487.58-148.27a5.0369 2.8476 0 0 1-5.0369 2.8476 5.0369 2.8476 0 0 1-5.0369-2.8476 5.0369 2.8476 0 0 1 5.0369-2.8476 5.0369 2.8476 0 0 1 5.0369 2.8476z" fill="#b88100"/> <path d="m493.81-72.923a11.267 6.4781 0 0 1-11.267 6.478 11.267 6.4781 0 0 1-11.267-6.478 11.267 6.4781 0 0 1 11.267-6.478 11.267 6.4781 0 0 1 11.267 6.478z" fill="#3c6686"/> <g transform="translate(-373.9 100.51)" stroke="#ccc" stroke-miterlimit="4"> <path d="m864.62-175.67c-1.3386-5.2308-13.277-6.2775-14.722-1.5874v-31.45c1.3212-5.6116 15.096-4.2064 14.722 0.86476z" fill="#ececec" stroke-linecap="round" stroke-linejoin="miter"/> <path d="m849.5-207.65v31.87c3.3195 2.8696 9.098 2.102 10.791 0.0903l0.0903-32.051c-2.4312 3.4596-8.8269 1.9254-10.881 0.0904z" fill="#ececec" stroke-linecap="round" stroke-linejoin="miter"/> <path transform="matrix(.63957 .30632 -.58042 .35695 217.68 -415.96)" d="m857.63-154.77c0.65132-0.37604 0.82823 0.69244 0.625 1.0825-0.55073 1.0571-2.0388 0.85206-2.7901 0.16747-1.3437-1.2246-0.96524-3.3681 0.29006-4.4976 1.8422-1.6576 4.7172-1.087 6.2051 0.74759 1.9832 2.4452 1.2127 6.0737-1.2051 7.9127-3.0426 2.3142-7.4337 1.3406-9.6202-1.6626-2.6482-3.6373-1.4697-8.7957 2.1202-11.328 4.2305-2.9839 10.159-1.5995 13.035 2.5777" fill="none" stroke-width="1.5692"/> </g> </g> <path d="m509.79-61.98 0.057 11.824-10.686-0.11828-0.18-11.996c2.934 4.4265 9.0737 3.2158 10.837-0.03285z" fill="#0099da" fill-opacity=".64609"/> </g> <g transform="translate(3.2227 -39.36)"> <g transform="matrix(-1 0 0 1 791.2 232.29)" filter="url(#filter2197)" opacity=".96"> <g transform="matrix(.26349 .031545 -.031545 .26349 374.18 -49.22)"> <path d="m469.55-71.798v-31.547c6e-3 -5.3871 2.3036-9.3766 5.793-12.64l1.4763-25.138c3.8176 1.8518 7.7526 1.8818 11.811 0l1.0902 25.138c2.4095 3.4127 5.7552 5.3455 5.709 12.64v31.547c-3.0408 8.2525-22.089 8.662-25.88 0z" fill="#558bb4" fill-opacity=".77366" stroke="#82a8c6" stroke-linecap="butt" stroke-linejoin="miter" stroke-miterlimit="4"/> <path d="m486.72-137.46c0 1.2628-1.8741 2.2865-4.186 2.2865s-4.186-1.0237-4.186-2.2865l-0.85092-10.813c0.58648-0.17089 4.1124-0.25911 4.8235-0.25911 0.83332 0 4.598 0.0299 5.2503 0.25911z" fill="#804d00"/> <path d="m495.53-72.923a12.99 7.5 0 0 1-12.99 7.5 12.99 7.5 0 0 1-12.99-7.5 12.99 7.5 0 0 1 12.99-7.5 12.99 7.5 0 0 1 12.99 7.5z" fill="none" stroke="#82a8c6" stroke-dasharray="0.25, 0.25" stroke-linecap="round" stroke-linejoin="round" stroke-miterlimit="4"/> <path d="m488.46-142.39a5.7945 3.1933 0 0 1-5.7945 3.1933 5.7945 3.1933 0 0 1-5.7945-3.1933 5.7945 3.1933 0 0 1 5.7945-3.1933 5.7945 3.1933 0 0 1 5.7945 3.1933z" fill="#804d00" stroke="#73a1c0" stroke-linecap="round" stroke-linejoin="round" stroke-miterlimit="4" stroke-width="3"/> <path d="m482.54-146.05c-1.1999 6.2e-4 -4.0278-1.5036-4.9176-1.1018l0.29215 2.7459 0.27104 2.552c0.91276 0.84166 2.567 1.358 4.3545 1.3592 1.7874-2e-3 3.4417-0.51758 4.3545-1.3592l0.27104-2.5496 0.24845-2.3367c-0.85477-0.3468-3.7661 0.69097-4.874 0.69016z" fill="#804d00"/> <path d="m487.58-148.27a5.0369 2.8476 0 0 1-5.0369 2.8476 5.0369 2.8476 0 0 1-5.0369-2.8476 5.0369 2.8476 0 0 1 5.0369-2.8476 5.0369 2.8476 0 0 1 5.0369 2.8476z" fill="#b88100"/> <path d="m493.81-72.923a11.267 6.4781 0 0 1-11.267 6.478 11.267 6.4781 0 0 1-11.267-6.478 11.267 6.4781 0 0 1 11.267-6.478 11.267 6.4781 0 0 1 11.267 6.478z" fill="#3c6686"/> <g transform="translate(-373.9 100.51)" stroke="#ccc" stroke-miterlimit="4"> <path d="m864.62-175.67c-1.3386-5.2308-13.277-6.2775-14.722-1.5874v-31.45c1.3212-5.6116 15.096-4.2064 14.722 0.86476z" fill="#ececec" stroke-linecap="round" stroke-linejoin="miter"/> <path d="m849.5-207.65v31.87c3.3195 2.8696 9.098 2.102 10.791 0.0903l0.0903-32.051c-2.4312 3.4596-8.8269 1.9254-10.881 0.0904z" fill="#ececec" stroke-linecap="round" stroke-linejoin="miter"/> <path transform="matrix(.63957 .30632 -.58042 .35695 217.68 -415.96)" d="m857.63-154.77c0.65132-0.37604 0.82823 0.69244 0.625 1.0825-0.55073 1.0571-2.0388 0.85206-2.7901 0.16747-1.3437-1.2246-0.96524-3.3681 0.29006-4.4976 1.8422-1.6576 4.7172-1.087 6.2051 0.74759 1.9832 2.4452 1.2127 6.0737-1.2051 7.9127-3.0426 2.3142-7.4337 1.3406-9.6202-1.6626-2.6482-3.6373-1.4697-8.7957 2.1202-11.328 4.2305-2.9839 10.159-1.5995 13.035 2.5777" fill="none" stroke-width="1.5692"/> </g> <path d="m469.55-71.798v-31.547c6e-3 -5.3871 2.3036-9.3766 5.793-12.64l1.4763-25.138c3.8176 1.8518 7.7526 1.8818 11.811 0l1.0902 25.138c2.4095 3.4127 5.7552 5.3455 5.709 12.64v31.547c-3.0408 8.2525-22.089 8.662-25.88 0z" fill="#558bb4" fill-opacity=".19218" stroke="#82a8c6" stroke-linecap="butt" stroke-linejoin="miter" stroke-miterlimit="4"/> </g> </g> </g> </g> </svg>